<svg xmlns="http://www.w3.org/2000/svg" width="24" height="24" viewBox="0 0 24 24"><path fill="#FFF" d="M12 .9C5.8.9.9 5.8.9 12a11 11 0 1 0 22.2 0A11 11 0 0 0 12 .9zm6.5 6c-.6 0-.9-.3-.9-.8 0-.2 0-.4.2-.6l.2-.4c0-.3-.5-.4-.6-.4-1.8.1-2.3 2.5-2.7 4.4l-.2 1c1 .2 1.8 0 2.2-.3.6-.4-.2-.7-.1-1.2.1-.3.5-.5.7-.6.5 0 .7.5.7.9 0 .7-1 1.8-3 1.8l-.6-.1-.6 2.4c-.4 1.6-.8 3.8-2.4 5.7-1.4 1.7-2.9 1.9-3.5 1.9-1.2 0-1.9-.6-2-1.5 0-.8.7-1.3 1.2-1.3.6 0 1.1.5 1.1 1s-.2.6-.4.6c-.1.1-.3.2-.3.4 0 .1.1.3.4.3.5 0 .8-.3 1.1-.5 1.2-.9 1.6-2.7 2.2-5.7l.1-.7.7-3.2c-.8-.6-1.3-1.4-2.4-1.7-.6-.1-1.1.1-1.5.5-.4.5-.2 1.1.2 1.5l.7.6c.7.8 1.2 1.6 1 2.5-.3 1.5-2 2.6-4 1.9-1.8-.6-2-1.8-1.8-2.5.2-.6.6-.7 1.1-.6.5.2.6.7.6 1.2l-.1.3c-.2.1-.3.3-.3.4-.1.4.4.6.7.7.7.3 1.6-.2 1.8-.8a1 1 0 0 0-.4-1.1l-.7-.8c-.4-.4-1.1-1.4-.7-2.6.1-.5.4-.9.7-1.3a4 4 0 0 1 2.8-.6c1.2.4 1.8 1.1 2.6 1.8.5-1.2 1-2.4 1.8-3.5.9-.9 1.9-1.6 3.1-1.7 1.3.2 2.2.7 2.2 1.6 0 .4-.2 1.1-.9 1.1z"/></svg>
