<svg xmlns="http://www.w3.org/2000/svg" width="182" height="62" viewBox="45 19 200 80">
  <circle cx="68.72" cy="59.18" r="39.19"/>
  <path fill="#FFF" d="M85.85 34.5c-3.98.14-7.45 2.33-10.04 5.36-2.85 3.33-4.76 7.28-6.13 11.3-2.46-2-4.35-4.6-8.3-5.74-3.04-.88-6.23-.52-9.18 1.67-1.4 1.04-2.36 2.6-2.82 4.1-1.18 3.83 1.25 7.25 2.35 8.48l2.4 2.58c.5.5 1.7 1.82 1.12 3.72-.63 2.06-3.12 3.4-5.66 2.6-1.15-.35-2.78-1.2-2.4-2.4.14-.47.5-.84.68-1.26.16-.36.25-.63.3-.8.47-1.5-.17-3.48-1.8-3.98-1.5-.47-3.06-.1-3.66 1.85-.7 2.2.38 6.24 6.06 8 6.66 2.03 12.3-1.6 13.1-6.32.5-2.96-.84-5.17-3.3-8l-2-2.2c-1.2-1.2-1.6-3.27-.36-4.86 1.06-1.33 2.56-1.9 5.03-1.23 3.6.96 5.2 3.46 7.87 5.47-1.1 3.63-1.82 7.26-2.48 10.52l-.4 2.42c-1.9 10.03-3.37 15.54-7.16 18.7-.77.55-1.86 1.36-3.5 1.42-.87.03-1.15-.57-1.16-.83-.02-.6.5-.87.83-1.14.5-.28 1.27-.74 1.22-2.2-.06-1.74-1.5-3.25-3.57-3.18-1.56.05-3.93 1.52-3.84 4.2.1 2.77 2.67 4.85 6.57 4.72 2.08-.07 6.73-.92 11.3-6.37 5.34-6.24 6.83-13.4 7.95-18.63l1.25-6.92c.7.1 1.44.15 2.25.16 6.64.14 9.96-3.3 10-5.8.05-1.5-.98-3-2.42-2.97-1.03.03-2.32.72-2.63 2.14-.3 1.4 2.1 2.66.23 3.9-1.34.86-3.75 1.47-7.14.97l.62-3.4c1.25-6.46 2.8-14.4 8.7-14.6.42 0 1.98.03 2.02 1.07 0 .34-.08.43-.48 1.22-.4.62-.57 1.15-.55 1.75.06 1.66 1.3 2.74 3.12 2.68 2.43-.08 3.13-2.44 3.1-3.66-.1-2.85-3.12-4.65-7.1-4.52z"/>
  <g>
    <path d="M209.92 51.2c5.65 0 9.43 4.08 9.43 9.72 0 5.3-3.86 9.7-9.43 9.7-5.6 0-9.46-4.4-9.46-9.7 0-5.64 3.8-9.72 9.46-9.72zm0 16.67c4 0 5.8-3.64 5.8-6.95 0-3.53-2.16-6.95-5.8-6.95-3.67 0-5.82 3.42-5.82 6.95 0 3.3 1.78 6.95 5.82 6.95zM200 52.93v-1.3h-4.92v-1.76c0-2.5.37-4.4 3.3-4.4H198.6c.8.06 1.5-.6 1.54-1.43l.06-1.12c-.7-.1-1.42-.22-2.3-.22-5.05 0-6.22 2.95-6.22 7.46v1.48h-4.36v1.44c.1.75.75 1.32 1.53 1.32h2.83v15.8h1.9c.77 0 1.42-.6 1.52-1.35V54.4h3.42c.8-.02 1.46-.67 1.5-1.47zM154.44 51.64h-.02c-.72 0-1.42.5-1.73 1.17L148 67h-.08l-4.6-14.2c-.3-.66-1-1.16-1.74-1.16h-2.4l6.3 17.32c.2.62.65 1.56.65 1.97 0 .36-1.02 4.57-4.07 4.57h-.23c-.78-.05-1.37.5-1.5 1.34l-.1 1.18c.62.1 1.25.25 2.34.25 4.5 0 5.85-4.1 7.13-7.67l6.84-18.96h-2.1zM132.7 55.4c-2.83-1.44-5.92-2.42-5.98-5.33 0-3.1 2.85-3.9 5.04-3.9h.02c.95 0 1.7.1 2.45.26h.02c.78.05 1.44-.57 1.54-1.34l.05-1.13c-1.44-.35-2.94-.54-4.24-.54-4.74.03-8.28 2.43-8.3 7 .02 3.98 2.7 5.53 5.6 6.93 2.84 1.36 5.95 2.5 5.98 5.78-.02 3.44-3.34 4.7-5.62 4.72-1.34 0-2.8-.34-4-.73-.78-.13-1.4.55-1.5 1.45l-.1 1c1.67.54 3.4 1 5.13 1 5.34-.03 9.47-2.15 9.5-7.67-.02-4.24-2.73-6.03-5.6-7.5zM184.43 70.2c.74 0 1.35-.53 1.5-1.22V58.3c0-4.04-1.7-7.1-6.43-7.1-1.68 0-4.48.95-5.75 3.6-.98-2.5-3.13-3.6-5.27-3.6-2.73 0-4.6.98-5.9 3.13h-.07v-1.15c0-.85-.7-1.54-1.54-1.54h-1.66V70.2h1.86c.86 0 1.55-.7 1.55-1.56 0-.02.02-.03.03-.05v-7.75c0-3.46 1.38-6.88 4.87-6.88 2.77 0 3.3 2.87 3.3 5.16V70.2h1.9c.8 0 1.46-.63 1.53-1.42v-7.93c0-3.46 1.4-6.88 4.88-6.88 2.77 0 3.32 2.87 3.32 5.16V70.2h1.9zM237.28 70.2c.84 0 1.5-.67 1.55-1.5v-9.53c0-4.98-2.15-7.97-6.96-7.97-2.57 0-5.05 1.28-6.07 3.4h-.07v-1.4c0-.86-.7-1.56-1.55-1.56h-1.77V70.2h1.9c.8 0 1.47-.64 1.54-1.44V61.6c0-4.5 1.75-7.63 5.64-7.63 2.98.18 3.93 2.3 3.93 6.62v9.6h1.88zM255.7 51.64h-.02c-.73 0-1.43.5-1.73 1.17l-4.7 14.2h-.08l-4.6-14.2c-.3-.66-1-1.16-1.73-1.16h-2.4l6.3 17.32c.2.62.65 1.56.65 1.97 0 .36-1.03 4.57-4.1 4.57h-.22c-.77-.05-1.36.5-1.5 1.34l-.1 1.18c.63.1 1.25.25 2.34.25 4.52 0 5.86-4.1 7.13-7.67l6.84-18.96h-2.1z"/>
  </g>
</svg>
