<?xml version="1.0" encoding="utf-8"?>
<svg version="1.1" xmlns="http://www.w3.org/2000/svg" xmlns:xlink="http://www.w3.org/1999/xlink" x="0px" y="0px"
	 viewBox="0 0 236.6 254.1" enable-background="new 0 0 236.6 254.1" xml:space="preserve" height="24" width="24">
<path fill="#AAAAAA" d="M116.4,0l120,65c0.1,13.1,0.1,9.8,0.2,22.9L118.4,154L0.4,87c0-12.3,0-9.7,0.1-22
	L116.4,0z M18.4,105c23.8,12.2,82.1,46.1,100,56c32.5-18.3,65.1-37.5,97.6-55.8c10,5.9,8.4,4.9,18.4,10.8v22c-39,22-77,44-116,66
	C78.7,181.7,40,160.3,0.3,138c0-12.9,0-10,0.1-23L18.4,105z M18.1,155.1c33.3,18.3,66.7,36.7,100,55l100-55c9.7,5.8,8.3,4.9,18,10.6
	v22.4c-39,22-79,44-118,66c-39.7-22.3-78.3-44.7-118-67c-0.1-8.1-0.1-15.8,0-21C5.4,163.1,13.4,158.1,18.1,155.1z"/>
</svg>
