<svg version="1.1" xmlns="http://www.w3.org/2000/svg" x="0px" y="0px" width="24" height="24" viewBox="0 0 24 24" enable-background="new 0 0 24 24" xml:space="preserve">
<path fill="#AAA" d="M2.26 6.09l9.06-4.67a1.49 1.49 0 0 1 1.37 0l9.06 4.67a1.49 1.49 0 0 1 0 2.65l-9.06 4.67a1.49 1.49 0 0 1-1.37 0L2.26 8.74a1.49 1.49 0 0 1 0-2.65zM20.55 11L12 15.39 3.45 11a1.36 1.36 0 0 0-1.25 2.42l9.17 4.73a1.36 1.36 0 0 0 1.25 0l9.17-4.73A1.36 1.36 0 0 0 20.55 11zm0 4.47L12 19.86l-8.55-4.41a1.36 1.36 0 0 0-1.25 2.42l9.17 4.73a1.36 1.36 0 0 0 1.25 0l9.17-4.73a1.36 1.36 0 0 0-1.25-2.42z"/>
</svg>
