<svg version="1.1" xmlns="http://www.w3.org/2000/svg" x="0px" y="0px" width="24" height="24" viewBox="0 0 24 24" enable-background="new 0 0 24 24" xml:space="preserve">
<path fill="#AAAAAA" d="M23.5,9.5c0-0.2-1.2,0.2-1.6,0.2c0,0,0,0,0,0c0.1-0.3,0.3-0.6,0.4-0.8C23,7.4,22,6.6,21,7.5
    c-0.4,0.4,0,1.1,0,1.8c0,0.1,0,0.2,0,0.3c-0.2-0.1-0.4-0.1-0.6-0.3c-0.5-0.8-1.1-0.2-1.1,0c0,0.3,0.7,0.9,1.1,0.9c0.1,0,0.1,0,0.2,0
    c0,0.1,0,0.3,0,0.5c0,0.7-0.8,1.1-1.7,1.2V9.1c0-4.3-3.3-6.4-6.9-6.4c-3.5,0-6.9,2-6.9,6.4v2.8c-0.9-0.2-1.8-0.5-1.8-1.2
    c0-0.1,0-0.1,0-0.2c0.1,0,0.1,0,0.2,0c0.5,0,1.1-0.2,1.1-0.4C4.8,8.7,4,9.6,3.5,9.6c-0.1,0-0.2,0-0.3,0c0-0.1,0.1-0.2,0.1-0.4
    c0-0.5,1.2-1.7-0.8-1.9C2.1,7.3,2,8.2,2.1,8.6C2.3,9,2.4,9.5,2.5,9.8C2.4,9.6,2.2,9.6,2,9.5C1.8,9.3,0.4,7.6,0.1,9.5
    c-0.1,1.1,1,1.2,1.9,1c0.1,0,0.2-0.1,0.3-0.1c-0.1,0.3-0.2,0.7-0.2,1.2c0,1.3,1.5,1.6,2.9,1.7c0,1.7,0,5.2,0,5.2
    c0,1.6,0.5,2.8,2.2,2.8c1.8,0,2.4-1.3,2.4-2.9c0,1.6,0.6,2.9,2.3,2.9s2.3-2.2,2.3-2.8c0,1.7,0.7,2.8,2.4,2.8c1.7,0,2.2-1.2,2.2-2.9
    v-5.1c1.4-0.1,2.9-0.4,2.9-1.7c0-0.4-0.1-0.7-0.1-1c0.4,0.5,1.1,0.8,1.7,0.5C24.5,10.4,23.5,9.7,23.5,9.5z M6.8,8.4
    c0-1.5,1-2.5,2.3-2.5c1.3,0,2.3,1.1,2.3,2.5c0,1.4-1,2.6-2.2,2.6c0.6,0,1.1-0.5,1.1-1.2c0-0.6-0.5-1.2-1.2-1.2
    c-0.6,0-1.2,0.5-1.2,1.2c0,0.6,0.5,1.2,1.2,1.2c0,0,0,0,0,0C7.8,11,6.8,9.9,6.8,8.4z M11.9,15.9c-2.9-0.1-3.1-1.6-3.1-2.5
    c0-0.9,1.7-0.3,3.2-0.3c1.5,0,3.1-0.7,3.1,0.2C15.1,14.3,14.3,16,11.9,15.9z M15,11c0.6-0.1,1-0.6,1-1.2c0-0.6-0.5-1.2-1.2-1.2
    c-0.6,0-1.2,0.5-1.2,1.2c0,0.6,0.5,1.2,1.1,1.2c0,0,0,0,0,0c-1.3,0-2.3-1.2-2.3-2.6c0-1.5,1-2.5,2.3-2.5c1.3,0,2.3,1.1,2.3,2.5
    C17.1,9.8,16.2,10.9,15,11z"/>
</svg>
