<svg xmlns="http://www.w3.org/2000/svg" width="24" height="24" viewBox="0 0 24 24"><path fill="#AAA" d="M23.5 9.5c0-.2-1.2.2-1.6.2l.4-.8C23 7.4 22 6.6 21 7.5c-.4.4 0 1.1 0 1.8v.3l-.6-.3c-.5-.8-1.1-.2-1.1 0 0 .3.7.9 1.1.9h.2v.5c0 .7-.8 1.1-1.7 1.2V9.1c0-4.3-3.3-6.4-6.9-6.4-3.5 0-6.9 2-6.9 6.4v2.8c-.9-.2-1.8-.5-1.8-1.2v-.2h.2c.5 0 1.1-.2 1.1-.4.2-1.4-.6-.5-1.1-.5h-.3l.1-.4c0-.5 1.2-1.7-.8-1.9-.4 0-.5.9-.4 1.3l.4 1.2c-.1-.2-.3-.2-.5-.3-.2-.2-1.6-1.9-1.9 0-.1 1.1 1 1.2 1.9 1l.3-.1-.2 1.2c0 1.3 1.5 1.6 2.9 1.7v5.2c0 1.6.5 2.8 2.2 2.8 1.8 0 2.4-1.3 2.4-2.9 0 1.6.6 2.9 2.3 2.9s2.3-2.2 2.3-2.8c0 1.7.7 2.8 2.4 2.8s2.2-1.2 2.2-2.9v-5.1c1.4-.1 2.9-.4 2.9-1.7l-.1-1c.4.5 1.1.8 1.7.5 1.2-.7.2-1.4.2-1.6zM6.8 8.4c0-1.5 1-2.5 2.3-2.5 1.3 0 2.3 1.1 2.3 2.5s-1 2.6-2.2 2.6c.6 0 1.1-.5 1.1-1.2 0-.6-.5-1.2-1.2-1.2-.6 0-1.2.5-1.2 1.2 0 .6.5 1.2 1.2 1.2-1.3 0-2.3-1.1-2.3-2.6zm5.1 7.5c-2.9-.1-3.1-1.6-3.1-2.5 0-.9 1.7-.3 3.2-.3 1.5 0 3.1-.7 3.1.2 0 1-.8 2.7-3.2 2.6zM15 11c.6-.1 1-.6 1-1.2s-.5-1.2-1.2-1.2c-.6 0-1.2.5-1.2 1.2 0 .6.5 1.2 1.1 1.2-1.3 0-2.3-1.2-2.3-2.6 0-1.5 1-2.5 2.3-2.5C16 5.9 17 7 17 8.4c.1 1.4-.8 2.5-2 2.6z"/></svg>
