<svg version="1.1" xmlns="http://www.w3.org/2000/svg" x="0px" y="0px" height="24" viewBox="0 0 24 24" enable-background="new 0 0 24 24" xml:space="preserve">
    <path fill="#AAAAAA" d="M20.5,4H18V2.5C18,1.7,17.3,1,16.5,1h-9C6.7,1,6,1.7,6,2.5V4H3.5C2.7,4,2,4.7,2,5.5v16C2,22.3,2.7,23,3.5,
    23h17c0.8,0,1.5-0.7,1.5-1.5v-16C22,4.7,21.3,4,20.5,4z M9,4h6v1H9V4z M19,20H5V7h1.1c0.2,0.6,0.8,1,1.4,1h9c0.7,0,1.2-0.4,1.4-1H19
    V20z M17,11c0,0.6-0.4,1-1,1H8c-0.6,0-1-0.4-1-1s0.4-1,1-1h8C16.6,10,17,10.4,17,11z M17,14c0,0.6-0.4,1-1,1H8c-0.6,0-1-0.4-1-1
    s0.4-1,1-1h8C16.6,13,17,13.4,17,14z M13,17c0,0.6-0.4,1-1,1H8c-0.6,0-1-0.4-1-1s0.4-1,1-1h4C12.6,16,13,16.4,13,17z"/>
</svg>
