<svg xmlns="http://www.w3.org/2000/svg" data-icon-name="icon-tabler-forms" width="24" height="24" viewBox="0 0 24 24" stroke-width="1.5" stroke="currentColor" fill="none" stroke-linecap="round" stroke-linejoin="round" role="img">
    <title>Cache</title>
    <path stroke="none" d="M0 0h24v24H0z" fill="none"></path>
    <path d="M12 3a3 3 0 0 0 -3 3v12a3 3 0 0 0 3 3"></path>
    <path d="M6 3a3 3 0 0 1 3 3v12a3 3 0 0 1 -3 3"></path>
    <path d="M13 7h7a1 1 0 0 1 1 1v8a1 1 0 0 1 -1 1h-7"></path>
    <path d="M5 7h-1a1 1 0 0 0 -1 1v8a1 1 0 0 0 1 1h1"></path>
    <path d="M17 12h.01"></path>
    <path d="M13 12h.01"></path>
</svg>
