<svg version="1.1" xmlns="http://www.w3.org/2000/svg" x="0px" y="0px" width="24" height="24" viewBox="0 0 24 24" enable-background="new 0 0 24 24" xml:space="preserve">
<g fill="#AAAAAA">
	<polygon points="12.5,7 12.5,12.954 16.842,16.753 18.158,15.247 14.5,12.046 14.5,7  "></polygon>
	<path d="M13.5,2c-5.523,0-10,4.477-10,10h-3l4,5l4-5h-3c0-4.418,3.582-8,8-8s8,3.582,8,8s-3.582,8-8,8   c-2.583,0-4.873-1.229-6.336-3.129l-1.277,1.597C7.72,20.623,10.446,22,13.5,22c5.523,0,10-4.477,10-10C23.5,6.477,19.023,2,13.5,2   z"></path>
</g>
</svg>
