<svg xmlns="http://www.w3.org/2000/svg" width="24" height="24" viewBox="0 0 24 24"><path fill="#AAA" d="M20.4 12c-1 0-1.8.6-2.2 1.4l-2.6-.9c.1-.3.1-.5.1-.8 0-1.2-.6-2.2-1.5-2.9l1.5-2.6c.3.1.6.2 1 .2 1.4 0 2.5-1.1 2.5-2.5s-1.1-2.5-2.5-2.5-2.5 1.1-2.5 2.5c0 .8.4 1.5.9 1.9l-1.5 2.6c-.5-.3-1-.4-1.6-.4-.9 0-1.7.3-2.3.9L7.4 6.6c.3-.4.5-.9.5-1.5 0-1.4-1.1-2.5-2.5-2.5S2.7 3.7 2.7 5.1s1.1 2.5 2.5 2.5c.6 0 1.1-.2 1.5-.5L9 9.4c-.5.6-.8 1.4-.8 2.3 0 .7.2 1.4.6 2l-3.9 3.8c-.4-.3-.9-.5-1.5-.5C2 17 .9 18.1.9 19.5S2.2 22 3.6 22s2.5-1.1 2.5-2.5c0-.5-.2-1-.5-1.5l3.8-3.7c.7.7 1.6 1.1 2.6 1.1h.2l.4 2.4c-1 .3-1.7 1.3-1.7 2.4 0 1.4 1.1 2.5 2.5 2.5s2.5-1.1 2.5-2.5-1.1-2.5-2.5-2.5l-.4-2.5c1-.3 1.9-1 2.3-2l2.6.9v.4c0 1.4 1.1 2.5 2.5 2.5s2.5-1.1 2.5-2.5c.1-1.4-1.1-2.5-2.5-2.5z"/></svg>
