<svg version="1.1" xmlns="http://www.w3.org/2000/svg" x="0px" y="0px" width="24" height="24" viewBox="0 0 24 24" enable-background="new 0 0 24 24" xml:space="preserve">
<path fill="#AAAAAA" d="M6,18.9V15h12v3.9c0,0.7-0.2,1.1-1,1.1H7C6.2,20,6,19.6,6,18.9z M20,1C20,1,20,1,20,1c-0.6,0-1,0.5-1,1.1
    l0,18c0,0.5-0.4,0.9-0.9,0.9H5.9C5.4,21,5,20.6,5,20.1l0-18C5,1.5,4.6,1,4,1c0,0,0,0,0,0C3.5,1,3,1.5,3,2.1l0,18
    C3,21.7,4.3,23,5.9,23h12.2c1.6,0,2.9-1.3,2.9-2.9l0-18C21,1.5,20.6,1,20,1z M18,9H6v5h12V9z"/>
</svg>
