<svg version="1.1" xmlns="http://www.w3.org/2000/svg" x="0px" y="0px" height="24" viewBox="0 0 24 24" xml:space="preserve">
<path fill="#AAAAAA" d="m 2.571,17.5 18.859,0 c 0.87,0 1.57,0.7 1.57,1.57 l 0,1.57 c 0,0.87 -0.7,1.57 -1.57,1.57 l -18.859,0 C 1.702,22.21 1,21.51 1,20.64 L 1,19.07 C 1,18.2 1.702,17.5 2.571,17.5 Z M 1,11.21 1,12.79 c 0,0.86 0.702,1.56 1.571,1.56 l 18.859,0 c 0.87,0 1.57,-0.7 1.57,-1.56 l 0,-1.58 C 23,10.35 22.3,9.644 21.43,9.644 l -18.859,0 C 1.702,9.644 1,10.35 1,11.21 Z M 1,3.357 1,4.929 c 0,0.869 0.702,1.572 1.571,1.572 l 18.859,0 C 22.3,6.501 23,5.798 23,4.929 L 23,3.357 C 23,2.489 22.3,1.786 21.43,1.786 l -18.859,0 C 1.702,1.786 1,2.489 1,3.357 Z" />
</svg>
