<svg version="1.1" xmlns="http://www.w3.org/2000/svg" x="0px" y="0px" width="24" height="24" viewBox="0 0 24 24" enable-background="new 0 0 24 24" xml:space="preserve">
    <g id="Page-1" stroke="none" stroke-width="1" fill="none" fill-rule="evenodd">
        <g id="Symfony-Icon" fill="#AAAAAA" fill-rule="nonzero">
            <g id="messages" transform="translate(1.000000, 4.000000)">
                <polygon id="Shape" points="7 2.56157635 15.8538682 2.56157635 15.8538682 10.9293924 17.4441261 10.9293924 18.6475645 13 19.8510029 10.9293924 22 10.9293924 22 0 7 0"></polygon>
                <path d="M3.18051576,16 L4.53309456,13.7181965 L15,13.7181965 L15,3 L0,3 L0,13.7181965 L1.82793696,13.7181965 L3.18051576,16 Z M2.75071633,6.14009662 L9.11174785,6.14009662 L9.11174785,6.64251208 L2.75071633,6.64251208 L2.75071633,6.14009662 Z M2.75071633,8.27536232 L12.5071633,8.27536232 L12.5071633,8.77777778 L2.75071633,8.77777778 L2.75071633,8.27536232 Z M2.75071633,10.410628 L12.5071633,10.410628 L12.5071633,10.9130435 L2.75071633,10.9130435 L2.75071633,10.410628 Z" id="Shape"></path>
            </g>
        </g>
    </g>
</svg>