<svg xmlns="http://www.w3.org/2000/svg" width="24" height="24" viewBox="0 0 24 24"><path fill="#aaa" d="M16 9a2 2 0 0 0 2 2h4a2 2 0 0 0 2-2V7a2 2 0 0 0-2-2h-4a2 2 0 0 0-2 2h-3V4a1 1 0 0 0-1-1H8a2 2 0 0 0-2-2H2a2 2 0 0 0-2 2v2a2 2 0 0 0 2 2h4a2 2 0 0 0 2-2h3v6H8a2 2 0 0 0-2-2H2a2 2 0 0 0-2 2v2a2 2 0 0 0 2 2h4a2 2 0 0 0 2-2h3v9a1 1 0 0 0 2 0v-5h3a2 2 0 0 0 2 2h4a2 2 0 0 0 2-2v-2a2 2 0 0 0-2-2h-4a2 2 0 0 0-2 2h-3V9zm2.52-2.5h3a.5.5 0 0 1 0 1h-3a.5.5 0 0 1 0-1zm0 1.63h3a.5.5 0 0 1 .5.5.5.5 0 0 1-.5.5h-3a.5.5 0 0 1-.5-.5.5.5 0 0 1 .5-.52zm-13-2.82h-3a.5.5 0 0 1-.5-.5.5.5 0 0 1 .5-.5h3a.5.5 0 0 1 .5.5.5.5 0 0 1-.54.48zm0-1.62h-3a.5.5 0 0 1-.5-.5.5.5 0 0 1 .5-.5h3a.5.5 0 0 1 .5.5.5.5 0 0 1-.54.48zm0 9.62h-3a.5.5 0 0 1-.5-.5.5.5 0 0 1 .5-.5h3a.5.5 0 0 1 .5.5.5.5 0 0 1-.54.48zm0-1.62h-3a.5.5 0 0 1-.5-.5.5.5 0 0 1 .5-.5h3a.5.5 0 0 1 .5.5.5.5 0 0 1-.54.48zm13 2.81h3a.5.5 0 0 1 0 1h-3a.5.5 0 0 1 0-1zm0 1.63h3a.5.5 0 0 1 .5.5.5.5 0 0 1-.5.5h-3a.5.5 0 0 1-.5-.5.5.5 0 0 1 .5-.52z"/></svg>
