<svg xmlns="http://www.w3.org/2000/svg" width="24" height="24" viewBox="0 0 24 24"><path fill="#aaa" d="M23 7.8L14 .4a1.3 1.3 0 0 0-2 .9V4a13.6 13.6 0 0 1-2.2.6l-1.3.5c-.5.1-1 .4-1.4.6l-.7.4-.7.4a10.6 10.6 0 0 0-1.4 1A13.2 13.2 0 0 0 3 8.8a15.3 15.3 0 0 0-1.1 1.5 17.6 17.6 0 0 0-.9 1.6l-.5 1.7c-.2.5 0 1.2 0 1.7a10.2 10.2 0 0 0 0 1.5A5.7 5.7 0 0 0 1 18l.4 1.2 1 2 1 1.4 1 1c.2.2.4.1.3-.2l-.3-1.2-.3-1.6-.1-1.9v-1a3.4 3.4 0 0 1 .2-1 6.4 6.4 0 0 1 .3-.8l.4-.8.6-.6.6-.6.7-.4a7.5 7.5 0 0 1 .8-.2 4.5 4.5 0 0 1 .8-.2h2.5a3.8 3.8 0 0 1 1.2.3v3.1a1.3 1.3 0 0 0 2 1l9-7.5a1.5 1.5 0 0 0 0-2.3z"/></svg>
