<svg width="38" height="28" xmlns="http://www.w3.org/2000/svg" version="1.1" x="0px" y="0px" viewBox="0 0 38 28" enable-background="new 0 0 38 28" xml:space="preserve"><path fill="#3F3F3F" d="M26.7 20.5c0 0.3 0 0.7 0.1 1c-1.1 1-1.6 1.6-1.8 1.8c0 0 0 0.1 0 0.1c1 1.3 1.5 2 1.5 2 c0.1 0 0.4-0.1 1.1-0.4c0.6-0.3 1-0.6 1.3-0.7c0.2 0.1 0.4 0.2 0.5 0.2c0.1 0 0.3 0.1 0.5 0.2c0.1 0.3 0.2 0.8 0.4 1.4 s0.3 1 0.4 1.1c0 0 0.8-0.1 2.5-0.3c0.1 0 0.1 0 0.1-0.1c0.1-0.3 0.2-1.1 0.1-2.5c0.3-0.2 0.6-0.4 0.8-0.6c1.6 0.5 2.5 0.7 2.6 0.5 l1-2.2l0 0c0.1-0.2-0.6-0.7-2.2-1.5c0-0.4 0-0.7-0.1-1c1.1-1 1.6-1.6 1.8-1.8c0 0 0-0.1 0-0.1c-1-1.3-1.4-1.9-1.5-2l-0.1 0 c-0.6 0.2-1.4 0.6-2.2 1.2c-0.2-0.1-0.4-0.2-0.5-0.2c-0.1 0-0.3-0.1-0.5-0.2c-0.1-0.3-0.2-0.8-0.4-1.4c-0.2-0.7-0.3-1-0.4-1.1 c0 0-0.2 0-0.6 0c-0.4 0-0.8 0.1-1.2 0.1C29.4 14 29.2 14 29.2 14c-0.1 0-0.1 0-0.1 0.1c-0.1 0.3-0.2 1.1-0.1 2.5 c-0.3 0.2-0.6 0.4-0.8 0.6c-1.6-0.5-2.5-0.7-2.6-0.5l-1 2.2C24.5 19.1 25.2 19.6 26.7 20.5z M30.3 18.4c0.6-0.2 1.1-0.2 1.7 0 c0.6 0.2 0.9 0.6 1.2 1.2c0.2 0.6 0.2 1.1 0 1.7c-0.2 0.6-0.6 1-1.2 1.2c-0.6 0.2-1.1 0.2-1.7 0c-0.6-0.2-1-0.6-1.2-1.2 c-0.2-0.6-0.2-1.1 0-1.7C29.3 19.1 29.7 18.7 30.3 18.4z"/><path fill="#3F3F3F" d="M25.9 11.1c0-0.1 0-0.3-0.1-0.4c-0.1-0.1-0.2-0.2-0.3-0.2L22.3 10c-0.1-0.5-0.4-1-0.7-1.7 c0.2-0.3 0.5-0.7 0.9-1.2c0.4-0.5 0.7-0.9 0.8-1.1c0.1-0.1 0.1-0.3 0.1-0.4c0-0.4-1-1.4-2.9-3.2c-0.1-0.1-0.3-0.2-0.4-0.2 c-0.2 0-0.3 0-0.4 0.1l-2.4 1.8c-0.6-0.3-1.1-0.5-1.5-0.6l-0.5-3.1c0-0.1-0.1-0.3-0.2-0.4C15.1 0.1 15 0 14.8 0h-3.8 c-0.3 0-0.5 0.2-0.6 0.5c-0.2 0.6-0.3 1.7-0.5 3.1C9.4 3.8 8.9 4 8.4 4.2L6.1 2.4C6 2.3 5.8 2.3 5.7 2.3c-0.3 0-0.8 0.4-1.6 1.2 C3.3 4.3 2.7 4.9 2.4 5.3C2.3 5.4 2.3 5.5 2.3 5.7c0 0.1 0 0.3 0.1 0.4C3.2 7 3.8 7.8 4.2 8.4C4 9 3.7 9.5 3.6 10l-3.1 0.5 c-0.1 0-0.2 0.1-0.3 0.2C0 10.8 0 10.9 0 11.1v3.7c0 0.1 0 0.3 0.1 0.4c0.1 0.1 0.2 0.2 0.3 0.2l3.1 0.5c0.2 0.5 0.4 1.1 0.7 1.7 c-0.2 0.3-0.5 0.7-1 1.2c-0.4 0.5-0.7 0.9-0.8 1.1c-0.1 0.1-0.1 0.3-0.1 0.4c0 0.4 1 1.4 2.9 3.2c0.1 0.1 0.3 0.2 0.4 0.2 c0.2 0 0.3 0 0.4-0.1l2.4-1.8C9 22 9.5 22.2 10 22.3l0.5 3.1c0 0.1 0.1 0.3 0.2 0.4c0.1 0.1 0.3 0.2 0.4 0.2h3.8 c0.3 0 0.5-0.2 0.6-0.5c0.2-0.6 0.3-1.7 0.5-3.1c0.5-0.2 1.1-0.4 1.6-0.6l2.3 1.8c0.1 0.1 0.3 0.1 0.4 0.1c0.3 0 0.8-0.4 1.6-1.2 c0.8-0.8 1.4-1.4 1.7-1.8c0.1-0.1 0.1-0.2 0.1-0.4c0-0.1 0-0.3-0.1-0.4c-0.8-0.9-1.4-1.7-1.8-2.3c0.3-0.6 0.5-1.1 0.6-1.5l3.1-0.5 c0.1 0 0.2-0.1 0.3-0.2c0.1-0.1 0.1-0.3 0.1-0.4L25.9 11.1L25.9 11.1z M16.6 16.6c-1 1-2.2 1.5-3.7 1.5s-2.7-0.5-3.7-1.5 c-1-1-1.5-2.2-1.5-3.7s0.5-2.7 1.5-3.7c1-1 2.2-1.5 3.7-1.5s2.7 0.5 3.7 1.5c1 1 1.5 2.2 1.5 3.7S17.6 15.6 16.6 16.6z"/><circle fill="#3F3F3F" cx="12.9" cy="12.9" r="2.8"/></svg>
