<svg version="1.1" xmlns="http://www.w3.org/2000/svg" x="0px" y="0px" height="24" viewBox="0 0 24 24" enable-background="new 0 0 24 24" xml:space="preserve">
<path fill="#AAAAAA" d="M13,3v18c0,1.1-0.9,2-2,2s-2-0.9-2-2V3c0-1.1,0.9-2,2-2S13,1.9,13,3z M23.2,4.6l-1.8-1.4
    C21.2,2.9,20.8,3,20.4,3h-1.3H14v2.1V8h5.1h1.3c0.4,0,0.8-0.3,1.1-0.5l1.8-1.6C23.6,5.6,23.6,4.9,23.2,4.6z M19.5,9.4
    C19.2,9.1,18.8,9,18.4,9h-0.3H14v2.6V14h4.1h0.3c0.4,0,0.8-0.1,1.1-0.3l1.8-1.5c0.4-0.3,0.4-0.9,0-1.3L19.5,9.4z M3.5,7
    C3.1,7,2.8,7,2.5,7.3L0.7,8.8c-0.4,0.3-0.4,0.9,0,1.3l1.8,1.6C2.8,11.9,3.1,12,3.5,12h0.3H8V9.4V7H3.9H3.5z"/>
</svg>
