<svg xmlns="http://www.w3.org/2000/svg" width="24" height="24" viewBox="0 0 115 115"><path stroke-width="1" stroke="#fff" fill="#222" d="M114.8 57.5c0 31.6-25.7 57.3-57.3 57.3C25.9 114.8.2 89.1.2 57.5.2 25.9 25.9.2 57.5.2c31.6 0 57.3 25.7 57.3 57.3z"/><path fill="#fff" d="M82.5 21.4c-5.8.2-10.9 3.4-14.7 7.8-4.2 4.9-7 10.6-9 16.5-3.6-2.9-6.4-6.8-12.1-8.4-4.5-1.3-9.1-.8-13.4 2.5-2 1.5-3.4 3.8-4.1 6-1.7 5.6 1.8 10.6 3.4 12.4l3.5 3.8c.7.7 2.5 2.7 1.6 5.4-.9 3-4.5 5-8.3 3.8-1.7-.5-4-1.7-3.5-3.5.2-.7.7-1.3 1-1.9.2-.5.4-.9.4-1.2.7-2.2-.2-5.1-2.6-5.8-2.2-.7-4.5-.1-5.4 2.7-1 3.2.6 9.1 8.9 11.7 9.7 3 18-2.3 19.1-9.2.7-4.3-1.2-7.6-4.8-11.7l-2.9-3.2c-1.8-1.8-2.4-4.8-.5-7.1 1.5-2 3.7-2.8 7.3-1.8 5.3 1.4 7.6 5.1 11.5 8-1.6 5.3-2.7 10.6-3.6 15.4l-.6 3.6c-2.8 14.7-4.9 22.7-10.5 27.3-1.1.8-2.7 2-5.1 2.1-1.3 0-1.7-.8-1.7-1.2 0-.9.7-1.3 1.2-1.7.7-.4 1.9-1.1 1.8-3.2-.1-2.5-2.2-4.7-5.2-4.6-2.3.1-5.7 2.2-5.6 6.1.1 4.1 3.9 7.1 9.6 6.9 3-.1 9.8-1.3 16.5-9.3 7.8-9.1 10-19.6 11.6-27.3l1.8-10.1c1 .1 2.1.2 3.3.2 9.7.2 14.6-4.8 14.6-8.5 0-2.2-1.5-4.4-3.6-4.3-1.5 0-3.4 1-3.8 3.1-.4 2 3.1 3.9.3 5.7-2 1.3-5.5 2.2-10.4 1.4l.9-5c1.8-9.4 4.1-21 12.7-21.3.6 0 2.9 0 3 1.5 0 .5-.1.6-.7 1.8-.6.9-.8 1.7-.8 2.6.1 2.4 1.9 4 4.6 3.9 3.5-.1 4.6-3.6 4.5-5.3.1-4.2-4.3-6.8-10.2-6.6z"/></svg>
