<svg version="1.1" xmlns="http://www.w3.org/2000/svg" x="0px" y="0px" height="24" viewBox="0 0 24 24" enable-background="new 0 0 24 24" xml:space="preserve">
<path fill="#AAAAAA" d="M12,0.9C5.8,0.9,0.9,5.8,0.9,12s5,11.1,11.1,11.1s11.1-5,11.1-11.1S18.2,0.9,12,0.9z M18.5,6.9
    c-0.6,0-0.9-0.3-0.9-0.8c0-0.2,0-0.4,0.2-0.6c0.1-0.3,0.2-0.3,0.2-0.4c0-0.3-0.5-0.4-0.6-0.4c-1.8,0.1-2.3,2.5-2.7,4.4l-0.2,1
    c1,0.2,1.8,0,2.2-0.3c0.6-0.4-0.2-0.7-0.1-1.2c0.1-0.3,0.5-0.5,0.7-0.6c0.5,0,0.7,0.5,0.7,0.9c0,0.7-1,1.8-3,1.8
    c-0.3,0-0.5,0-0.6-0.1L13.8,13c-0.4,1.6-0.8,3.8-2.4,5.7c-1.4,1.7-2.9,1.9-3.5,1.9c-1.2,0-1.9-0.6-2-1.5c0-0.8,0.7-1.3,1.2-1.3
    c0.6,0,1.1,0.5,1.1,1c0,0.5-0.2,0.6-0.4,0.6c-0.1,0.1-0.3,0.2-0.3,0.4c0,0.1,0.1,0.3,0.4,0.3c0.5,0,0.8-0.3,1.1-0.5
    c1.2-0.9,1.6-2.7,2.2-5.7l0.1-0.7c0.2-1,0.5-2.1,0.7-3.2c-0.8-0.6-1.3-1.4-2.4-1.7C9,8.2,8.5,8.4,8.1,8.8c-0.4,0.5-0.2,1.1,0.2,1.5
    L9,10.9c0.7,0.8,1.2,1.6,1,2.5C9.7,14.9,8,16,6,15.3c-1.8-0.6-2-1.8-1.8-2.5c0.2-0.6,0.6-0.7,1.1-0.6c0.5,0.2,0.6,0.7,0.6,1.2
    c0,0.1,0,0.1-0.1,0.3c-0.2,0.1-0.3,0.3-0.3,0.4c-0.1,0.4,0.4,0.6,0.7,0.7c0.7,0.3,1.6-0.2,1.8-0.8c0.2-0.6-0.2-1-0.4-1.1l-0.7-0.8
    c-0.4-0.4-1.1-1.4-0.7-2.6C6.3,9,6.6,8.6,6.9,8.2c0.9-0.6,1.8-0.7,2.8-0.6c1.2,0.4,1.8,1.1,2.6,1.8c0.5-1.2,1-2.4,1.8-3.5
    C15,5,16,4.3,17.2,4.2c1.3,0.2,2.2,0.7,2.2,1.6C19.4,6.2,19.2,6.9,18.5,6.9z"/>
</svg>
