<svg version="1.1" xmlns="http://www.w3.org/2000/svg" x="0px" y="0px" width="24" height="24" viewBox="0 0 24 24" enable-background="new 0 0 24 24" xml:space="preserve"><path fill="#aaaaaa" d="M19.54,22.5H4.29a2.88,2.88,0,0,1-2.87-2.87V4.37A2.88,2.88,0,0,1,4.29,1.5H18.54a1,1,0,0,1,0,2H4.29a.88.88,0,0,0-.87.87V19.63a.88.88,0,0,0,.87.87H19.54a.88.88,0,0,0,.87-.87V11.29a1,1,0,1,1,2,0v8.33A2.88,2.88,0,0,1,19.54,22.5ZM13,17.29,22.88,6a1.5,1.5,0,1,0-2.26-2L12,14,8,9.11A1.5,1.5,0,0,0,5.65,11l5.1,6.25a1.5,1.5,0,0,0,1.14.55h0A1.5,1.5,0,0,0,13,17.29Z"/></svg>
