<svg xmlns="http://www.w3.org/2000/svg" width="800" height="800" class="icon" viewBox="0 0 1024 1024"><path fill="currentColor" d="M149.333 661.333h213.334v213.334H149.333zm603.734-249.6L633.6 292.267c-8.533-8.534-8.533-21.334 0-29.867l119.467-119.467c8.533-8.533 21.333-8.533 29.866 0L902.4 262.4c8.533 8.533 8.533 21.333 0 29.867L782.933 411.733c-8.533 8.534-21.333 8.534-29.866 0zM128 277.333a128 128 0 1 0 256 0 128 128 0 1 0-256 0ZM640 768a128 128 0 1 0 256 0 128 128 0 1 0-256 0ZM234.667 512h42.666v106.667h-42.666z"/><path fill="currentColor" d="m256 448-64 85.333h128zM426.667 256h106.666v42.667H426.667z"/><path fill="currentColor" d="m597.333 277.333-85.333-64v128zM746.667 448h42.666v106.667h-42.666z"/><path fill="currentColor" d="m768 618.667 64-85.334H704z"/></svg>
