<svg xmlns="http://www.w3.org/2000/svg" width="24" height="24" viewBox="0 0 24 24" stroke-width="2" stroke="currentColor" fill="none" stroke-linecap="round" stroke-linejoin="round">
   <path stroke="none" d="M0 0h24v24H0z" fill="none"></path>
   <path d="M12 18m-2 0a2 2 0 1 0 4 0a2 2 0 1 0 -4 0"></path>
   <path d="M7 6m-2 0a2 2 0 1 0 4 0a2 2 0 1 0 -4 0"></path>
   <path d="M17 6m-2 0a2 2 0 1 0 4 0a2 2 0 1 0 -4 0"></path>
   <path d="M7 8v2a2 2 0 0 0 2 2h6a2 2 0 0 0 2 -2v-2"></path>
   <path d="M12 12l0 4"></path>
</svg>
